<svg width="390" height="844" viewBox="0 0 390 844" fill="none" xmlns="http://www.w3.org/2000/svg">
<g clip-path="url(#clip0_635_7775)">
<path d="M0 0H390V844H0V0Z" fill="#19413B"/>
<mask id="mask0_635_7775" style="mask-type:alpha" maskUnits="userSpaceOnUse" x="-16" y="-13" width="422" height="836">
<path d="M-16 779.247L-16 6.99999C-16 -4.0457 -7.04569 -13 4 -13L386 -13C397.046 -13 406 -4.04569 406 7L406 779.247C272.313 837.584 117.687 837.584 -16 779.247Z" fill="#FAFAFA"/>
</mask>
<g mask="url(#mask0_635_7775)">
<path d="M-16 781.088L-16 594.631L406 594.631L406 781.088C272.313 839.426 117.687 839.426 -16 781.088Z" fill="#42B57E"/>
<path d="M-16 774.949L-16 594.631L406 594.631L406 781.088C272.313 839.426 117.687 833.287 -16 774.949Z" fill="#93CA82"/>
<path d="M-16 762.671L-16 -13L406 -13L406 781.088C272.313 839.426 117.687 821.009 -16 762.671Z" fill="white"/>
<path d="M-16 383.289L-16 762.671C117.687 821.009 272.313 839.426 406 781.088L406 778.514C258.63 829.775 -15.7362 762.671 -15.7362 383.289L-16 383.289Z" fill="#F4FBF3"/>
</g>
</g>
<defs>
<clipPath id="clip0_635_7775">
<path d="M0 0H390V844H0V0Z" fill="white"/>
</clipPath>
</defs>
</svg>
